<?xml version="1.0" encoding="UTF-8"?>
<svg width="208px" height="86px" viewBox="0 0 208 86" version="1.1" xmlns="http://www.w3.org/2000/svg" xmlns:xlink="http://www.w3.org/1999/xlink">
    <!-- Generator: Sketch 62 (91390) - https://sketch.com -->
    <title>404-not-found</title>
    <desc>Created with Sketch.</desc>
    <g id="12.Common" stroke="none" stroke-width="1" fill="none" fill-rule="evenodd">
        <g id="12_04_0000_Error-not-found" transform="translate(-731.000000, -292.000000)">
            <g id="Group" transform="translate(587.000000, 293.000000)">
                <g id="404-not-found" transform="translate(143.500000, 0.000000)">
                    <ellipse id="Oval" fill="#F2F2F2" fill-rule="nonzero" cx="104.5" cy="78" rx="104" ry="7"></ellipse>
                    <path d="M101.638872,2 C84.6777042,2 72.5,12.9318595 72.5,38.4395318 C72.5,67.3473018 84.6777042,75 101.638872,75 C118.60004,75 131.5,66.6177181 131.5,38.4395318 C131.5,8.31843242 118.598067,2 101.638872,2 Z M101.751355,65.4063714 C90.0038464,65.4063714 83.8666466,58.4832568 83.8666466,38.4593574 C83.8666466,20.792727 90.2564386,11.4766573 102.001973,11.4766573 C113.747508,11.4766573 120.1373,17.5948508 120.1373,38.4593574 C120.135327,57.9777029 113.496889,65.4063714 101.751355,65.4063714 Z" id="Shape" fill="#0D1F9E" fill-rule="nonzero"></path>
                    <path d="M62.255931,55.5993193 L55.2227328,55.5993193 L55.2227328,35.0092676 C55.2227328,32.7271288 53.3615937,30.8770898 51.0657622,30.8770898 L49.4168306,30.8770898 C47.1209991,30.8770898 45.25986,32.7271288 45.25986,35.0092676 L45.25986,35.0092676 L45.25986,55.5993193 L25.4370491,55.5993193 C24.6103647,55.5941896 23.8458199,55.1621891 23.4184681,54.4587346 C22.9911163,53.7552802 22.9624294,52.8815591 23.3427277,52.1519024 L44.3413675,12.6364764 C44.8556434,11.6698241 44.9622717,10.5396078 44.6377668,9.49476335 C44.313262,8.44991886 43.5842416,7.57614948 42.6112759,7.06590715 C42.558489,7.03573569 42.5030627,7.00818784 42.4449971,6.98326359 L41.205824,6.39295248 C39.2063498,5.45916668 36.8213601,6.24308361 35.7760287,8.17765975 L10.1651311,55.7960896 C9.7263293,56.6120256 9.49781146,57.5233495 9.5,58.4485542 L9.5,58.4485542 C9.50220122,61.5355117 12.0203028,64.0368336 15.1257826,64.0368328 L45.2776756,64.0368328 L45.2776756,77.0571283 C45.2776756,79.7870009 47.5039525,82 50.2502042,82 L50.2502042,82 C52.9964559,82 55.2227328,79.7870009 55.2227328,77.0571283 L55.2227328,77.0571283 L55.2227328,64.0368328 L62.255931,64.0368328 C64.5967769,64.0368368 66.4956328,62.1528275 66.5,59.8259468 L66.5,59.8259468 C66.5,57.4959918 64.5998656,55.6071901 62.255931,55.6071901 L62.255931,55.5993193 Z" id="Path" fill="#0F23B1" fill-rule="nonzero"></path>
                    <path d="M192.255932,55.5980351 L185.220757,55.5980351 L185.220757,35.0085165 C185.220763,32.7302734 183.36565,30.8818701 181.073685,30.8764457 L179.424754,30.8764457 C177.128923,30.8764457 175.267785,32.7264368 175.267785,35.0085165 L175.267785,35.0085165 L175.267785,55.5980351 L155.437062,55.5980351 C154.610377,55.5929056 153.845833,55.1609163 153.418481,54.45748 C152.99113,53.7540438 152.962443,52.8803453 153.342741,52.1507075 L174.341374,12.6363045 C175.40531,10.6226473 174.632038,8.13292019 172.611283,7.06587955 L172.445004,6.98323814 L171.205832,6.39294231 C169.206358,5.45918068 166.821369,6.24307732 165.776038,8.17760337 L140.165148,55.7948004 C139.725413,56.6103576 139.496836,57.5218959 139.5,58.4471963 L139.5,58.4471963 C139.5,59.9301244 140.092809,61.3522869 141.147902,62.4006909 C142.202994,63.4490948 143.633935,64.0378198 145.125798,64.0372979 L175.277682,64.0372979 L175.277682,77.0572562 C175.277682,79.78629 177.502752,81.9989136 180.24823,82 L180.24823,82 C182.99448,82 185.220757,79.7870582 185.220757,77.0572562 L185.220757,77.0572562 L185.220757,64.0353302 L192.255932,64.0353302 C194.596777,64.0353343 196.495633,62.1513737 196.5,59.8245533 L196.5,59.8245533 C196.5,57.4946586 194.599866,55.6059057 192.255932,55.6059057 L192.255932,55.5980351 Z" id="Path" fill="#0F23B1" fill-rule="nonzero"></path>
                    <path d="M64.2533605,52.5946169 L57.2191831,52.5946169 L57.2191831,32.0024327 C57.2137253,29.723901 55.3539247,27.87966 53.0616339,27.8796664 L51.4223717,27.8796664 C49.1300809,27.87966 47.2702803,29.723901 47.2648225,32.0024327 L47.2648225,32.0024327 L47.2648225,52.5946169 L27.4293532,52.5946169 C26.6008112,52.5905433 25.8342557,52.1576938 25.4064837,51.4523669 C24.9787116,50.7470399 24.9515248,49.8711369 25.3347403,49.1409392 L46.3382829,9.6292921 C47.4037039,7.61490284 46.6301448,5.12339727 44.6079506,4.05617801 L44.4416486,3.9735259 L43.2003232,3.39299318 C41.2005706,2.45911067 38.8152489,3.24310879 37.769772,5.1778853 L12.1632284,52.8071509 C11.7277485,53.6180044 11.5,54.5230179 11.5,55.4421791 L11.5,55.4421791 C11.4989014,58.5260696 14.0101944,61.0284595 17.1126918,61.0349723 L47.2727416,61.0349723 L47.2727416,74.0566163 C47.2727416,76.7867717 49.4993284,79 52.2459624,79 L52.2459624,79 C54.9925964,79 57.2191831,76.7867717 57.2191831,74.0566163 L57.2191831,74.0566163 L57.2191831,61.0349723 L64.2533605,61.0349723 C65.3794572,61.0354944 66.4596117,60.5912039 67.2560681,59.799895 C68.0525244,59.0085861 68.5,57.9351193 68.5,56.8157786 L68.5,56.8157786 C68.5,54.4844954 66.5987147,52.5946169 64.2533605,52.5946169 Z" id="Path" stroke="#3F3D56"></path>
                    <path d="M195.261426,52.5946169 L188.225514,52.5946169 L188.225514,32.0024327 C188.220072,29.7277362 186.366354,27.8850759 184.078008,27.8796664 L182.428904,27.8796664 C180.136692,27.87966 178.276957,29.723901 178.271499,32.0024327 L178.271499,32.0024327 L178.271499,52.5946169 L158.438698,52.5946169 C157.610185,52.5905433 156.843656,52.1576938 156.415899,51.4523669 C155.988142,50.7470399 155.960956,49.8711369 156.344158,49.1409392 L177.344992,9.6292921 C178.410375,7.61490284 177.636843,5.12339727 175.614719,4.05617801 L175.448423,3.9735259 L174.20912,3.39299318 C172.209437,2.45911067 169.824199,3.24310879 168.778758,5.1778853 L143.165185,52.8012472 C142.728187,53.6115997 142.5,54.516837 142.5,55.4362754 L142.5,55.4362754 C142.5,56.9197364 143.092081,58.3425887 144.147341,59.3915541 C145.202601,60.4405195 146.633992,61.0295908 148.126355,61.0290686 L178.281397,61.0290686 L178.281397,74.0507126 C178.278115,76.7801014 180.500761,78.9956558 183.246527,79 L183.246527,79 C185.993065,79 188.219575,76.7867717 188.219575,74.0566163 L188.219575,74.0566163 L188.219575,61.0349723 L195.255487,61.0349723 C197.599667,61.0349723 199.5,59.1459749 199.5,56.8157786 L199.5,56.8157786 C199.5,55.6964379 199.053568,54.6227638 198.257511,53.8310858 C197.461453,53.0394079 196.381545,52.5946168 195.255487,52.5946169 L195.261426,52.5946169 Z" id="Path" stroke="#3F3D56"></path>
                    <path d="M104.636894,0 C87.6777021,0 75.5,10.9318595 75.5,36.4395318 C75.5,65.3473018 87.6777021,73 104.636894,73 C121.596085,73 134.5,64.6197007 134.5,36.4395318 C134.50591,6.31248472 121.607926,0 104.636894,0 Z M104.749376,63.4043888 C93.00187,63.4043888 86.8646713,56.4812743 86.8646713,36.4573749 C86.8646713,18.7907444 93.2524887,9.47467478 104.999995,9.47467478 C116.747501,9.47467478 123.135319,15.5948508 123.135319,36.4573749 C123.135319,55.9757204 116.494909,63.4043888 104.749376,63.4043888 Z" id="Shape" stroke="#3F3D56"></path>
                </g>
            </g>
        </g>
    </g>
</svg>